<?xml version="1.0" encoding="utf-8"?>
<!-- Generator: Adobe Illustrator 19.2.1, SVG Export Plug-In . SVG Version: 6.00 Build 0)  -->
<svg version="1.1" id="Layer_1" xmlns="http://www.w3.org/2000/svg" xmlns:xlink="http://www.w3.org/1999/xlink" x="0px" y="0px"
	 viewBox="0 0 170 170" style="enable-background:new 0 0 170 170;" xml:space="preserve">
<style type="text/css">
	.st0{fill:#F37035;}
</style>
<g id="Icon_Envelope">
	<path class="st0" d="M168.2,38.3l-6.6-6.6L99.4,94c-7.9,7.9-20.8,7.9-28.8,0L8.3,31.7l-6.6,6.6l46.5,46.5L1.8,131.3l6.6,6.6
		l46.5-46.5l9.2,9.2c5.6,5.6,13,8.7,21,8.7s15.4-3.1,21-8.7l9.2-9.2l46.5,46.5l6.6-6.6l-46.5-46.5L168.2,38.3z"/>
	<path class="st0" d="M155,150H15c-8.3,0-15-6.7-15-15V35c0-8.3,6.7-15,15-15H155c8.3,0,15,6.7,15,15v100
		C170,143.2,163.2,150,155,150z M15,30c-2.8,0-5,2.2-5,5v100c0,2.8,2.2,5,5,5H155c2.8,0,5-2.2,5-5V35c0-2.8-2.2-5-5-5H15z"/>
</g>
</svg>
